<svg xmlns="http://www.w3.org/2000/svg" viewBox="0 0 216.33 27.08"><defs><style>.cls-1{isolation:isolate;}.cls-2{fill:#231f20;fill-rule:evenodd;}</style></defs><g id="pleasures_logo_Image_copy" data-name="pleasures_logo Image copy" class="cls-1"><path class="cls-2" d="M60.72,23.12V44.33h3V23.12H71V21.75H53.4v1.37Zm26.59-4v-1.3H74v1.3ZM74.12,44.33H87.48V42.89H77.09V32.76h9.44V31.42H77.09v-8.3H87.31V21.75H74.12V44.33Zm17.57,0h13.43V42.89H94.7V32.76h9.47V31.42H94.7v-8.3H105V21.75H91.69V44.33Zm-70.54,0h13.4V42.89H24.13V32.76h9.44V31.42H24.13v-8.3H34.42V21.75H21.15V44.33Zm181.07,0h13.4V42.89H205.23V32.76h9.44V31.42h-9.44V23.09h10.23V21.75H202.22V44.33Zm-83.77,0h13.27V42.86H121.39V21.75h-2.94V44.33Zm-81.06-1a14.05,14.05,0,0,0,6.54,1.56c4.7,0,9-2.71,9-7.28,0-7.71-12.88-5.1-12.88-11.05,0-2.18,2.06-4.11,5.17-4.11a9.37,9.37,0,0,1,6.07,2.32V22.73a14.07,14.07,0,0,0-6.2-1.5c-4,0-7.65,2.35-7.65,6.14,0,8.07,12.78,5.16,12.78,11.2,0,2.49-2.32,5-6.24,5a12.42,12.42,0,0,1-6.54-2.25v2.06Zm95.41,1,9.54-22.81h2.35l3.72,8.79,6,14H151L147.5,35.7h-9.15l-3.5,8.63Zm14.18-10c-1-2.42-2.59-6.21-4.06-10-1.53,3.92-3.52,8.89-4,10Zm9,2.48c0,5.07,3,8,9,8,6.47,0,9-3.76,9-7.81V21.75H172.3V37c0,4.15-2.78,6.53-6.93,6.53-3.66,0-6.44-1.89-6.44-6.14V21.75H156V36.84Zm63.88-15.09H228c4.28-.1,7.84,1.6,7.84,5.78s-4.74,5.46-5.75,5.65l7.35,11.15h-3.33l-6.93-10.79h-4.34V44.33h-3V21.75Zm6.53,10.52c3.73.06,6.57-1.37,6.57-4.74,0-3-1.8-4.57-5.13-4.54h-5v9.28ZM178.54,44.33V21.75h8.66c7.18-.13,11.37,3.95,11.37,11,0,8.4-5.75,11.66-12.52,11.57Zm3-1.34h4c6.14.09,10-2.58,10-9.87,0-6.73-3.2-10.16-8.73-10.06h-5.26V43Z" transform="translate(-21.15 -17.83)"/></g></svg>